<svg width="512" height="299" enable-background="new 0 0 512 512" version="1.1" viewBox="0 0 512 299" xmlns="http://www.w3.org/2000/svg">
 <g transform="translate(0 -106)">
  <path d="m188 308c0 50-41 90-90 90-6.5 0-13-0.69-19-2-41-8.7-71-45-71-88 0-43 31-80 71-88 6.1-1.3 12-2 19-2 50 0 90 41 90 91z" fill="#eef7ff"/>
  <path d="m188 308c0 50-41 90-90 90-6.5 0-13-0.69-19-2 41-8.7 72-45 72-88 0-43-31-80-72-88 6.1-1.3 12-2 19-2 50 0 90 41 90 91z" fill="#d8e5ef"/>
  <path d="m98 210c-54 0-98 44-98 98s44 98 98 98 98-44 98-98-44-98-98-98zm0 181c-46 0-83-37-83-83s37-83 83-83 83 37 83 83-37 83-83 83z" fill="#46637f"/>
  <path d="m505 308c0 50-41 90-90 90-6.3 0-13-0.65-18-1.9-41-8.5-72-45-72-89 0-44 31-80 72-89 6-1.2 12-1.9 18-1.9 50 0 90 41 90 91z" fill="#eef7ff"/>
  <path d="m505 308c0 50-41 90-90 90-6.3 0-13-0.65-18-1.9 41-8.5 72-45 72-89 0-44-31-80-72-89 6-1.2 12-1.9 18-1.9 50 0 90 41 90 91z" fill="#d8e5ef"/>
  <path d="m414 210c-54 0-98 44-98 98s44 98 98 98 98-44 98-98-44-98-98-98zm0 181c-46 0-83-37-83-83s37-83 83-83 83 37 83 83-37 83-83 83z" fill="#46637f"/>
  <path d="m251 277-65-151-14 6 22 52-101 100 11 11 97-95 37 84z" fill="#33e279"/>
  <ellipse cx="256" cy="308" rx="31" ry="31" fill="#eef7ff"/>
  <path d="m256 270-159 12c-4.1 0.3-7.2 3.9-6.9 8 0.29 3.9 3.6 6.9 7.5 6.9 0.19 0 0.37-7e-3 0.56-0.021l126-9.3c-3.9 6-6.1 13-6.1 21s2.3 15 6.1 21l-126-9.3c-4.1-0.29-7.7 2.8-8 6.9-0.31 4.1 2.8 7.7 6.9 8l159 12h0.016c21-9e-3 38-17 38-38 1e-3 -21-17-38-38-38zm0.12 61-3.9-0.29c-11-1.8-19-11-19-23s8.4-21 19-23l3.9-0.29c13 0.14 23 10 23 23s-10 23-23 23z" fill="#46637f"/>
  <path d="m153 106c-5.4 0-9.8 4.4-9.8 9.7 0 11 9.1 20 20 20h32c11 0 20-9.1 20-20 0-5.4-4.4-9.7-9.8-9.7z" fill="#f7904b"/>
  <path d="m413 288-65-166h42c1.3 0 2.3 1 2.3 2.2 0 7-5.8 13-13 13-4.1 0-7.5 3.4-7.5 7.5s3.4 7.5 7.5 7.5c15 0 28-12 28-28 0-9.5-7.8-17-17-17h-53c-2.5 0-4.8 1.2-6.2 3.3s-1.7 4.6-0.8 7l25 63-105 123c-2.7 3.2-2.3 7.9 0.84 11 1.4 1.2 3.1 1.8 4.9 1.8 2.1 0 4.2-0.9 5.7-2.6l100-117 38 98c1.2 3 4 4.8 7 4.8 0.9 0 1.8-0.16 2.7-0.51 3.9-1.5 5.8-5.9 4.3-9.7z" fill="#33e279"/>
  <g fill="#46637f">
   <ellipse cx="98" cy="308" rx="26" ry="26"/>
   <ellipse cx="414" cy="308" rx="26" ry="26"/>
  </g>
 </g>
</svg>
