<svg width="512" height="385" enable-background="new 0 0 512 512" version="1.1" viewBox="0 0 512 385" xmlns="http://www.w3.org/2000/svg">
 <g transform="translate(0 -63)">
  <circle cx="97" cy="351" r="97" fill="#823931"/>
  <path d="m194 351c0 53-44 97-97 97v-194c53 0 97 44 97 97z" fill="#583227"/>
  <circle cx="97" cy="351" r="67" fill="#f0faff"/>
  <path d="m164 351c0 37-30 67-67 67v-134c37 0 67 30 67 67z" fill="#cee6f4"/>
  <circle cx="414" cy="351" r="98" fill="#823931"/>
  <path d="m512 351c0 54-44 98-98 98v-196c54 0 98 44 98 98z" fill="#583227"/>
  <circle cx="414" cy="351" r="68" fill="#f0faff"/>
  <path d="m482 351c0 37-30 68-68 68v-136c38 0 68 30 68 68z" fill="#cee6f4"/>
  <path d="m329 73c-2.2-5.9-7.8-9.9-14-9.9h-46c-8.3 0-15 6.7-15 15s6.7 15 15 15h36l14 38 17 7 15-7z" fill="#cee6f4"/>
  <path d="m228 260h30l6-20-6-19c-3.7 5.5-6 8.9-6 8.9h-39c-3.8-7.5-21-43-32-65h-34l23 46c-41-21-88-23-129-7.4-7.7 3-12 12-8.6 19s12 12 19 8.6c33-13 70-11 103 5.4l-70 105c-6.6 10 0.49 23 12 23h159c0.58 0 1.2-0.039 1.7-0.11l7-25-7-20zm-103 75 61-91 46 91z" fill="#e85b8e"/>
  <path d="m428 345c-3.7-10-74-204-78-214h-32c-0.065 0.097-44 66-61 91v39h2c5 0 9.7-2.5 12-6.7l59-88 11 29-84 125-0.13-0.26v45c4.4-0.52 8.4-3 11-6.6l86-129 46 125c2.8 7.8 11 12 19 9 7.8-2.8 12-11 9-19z" fill="#db1f79"/>
  <path d="m208 141h-72c-8.3 0-15 6.7-15 15s6.7 15 15 15h72c8.3 0 15-6.7 15-15s-6.7-15-15-15z" fill="#583227"/>
 </g>
</svg>
