<svg width="512" height="336" enable-background="new 0 0 511.881 511.881" version="1.1" viewBox="0 0 512 336" xmlns="http://www.w3.org/2000/svg">
 <g transform="translate(0 -88)">
  <path d="m419 424c-51 0-93-42-93-93s42-93 93-93 93 42 93 93-42 93-93 93zm0-156c-35 0-63 28-63 63s28 63 63 63 63-28 63-63-28-63-63-63z" fill="#07485e"/>
  <path d="m419 424c-51 0-93-42-93-93s42-93 93-93 93 42 93 93-42 93-93 93zm0-156c-35 0-63 28-63 63s28 63 63 63 63-28 63-63-28-63-63-63z" fill="#04303e"/>
  <path d="m93 424c-51 0-93-42-93-93s42-93 93-93 93 42 93 93-42 93-93 93zm0-156c-35 0-63 28-63 63s28 63 63 63 63-28 63-63-28-63-63-63z" fill="#07485e"/>
  <path d="m433 147v-4.8c0-30-24-54-54-54h-72l36 92h-173l12-32-28-10-67 186 13 13h163l98-113 44 113 28-11-82-207h28c13 0 24 11 24 24v4.8zm-252 64h150l-76 88zm-28 14 69 82h-99z" fill="#ff9f00"/>
  <path d="m433 147v-4.8c0-30-24-54-54-54h-72l36 92h-88v30h76l-76 88-0.12-0.14v38h6.9l98-113 44 113 28-11-82-207h28c13 0 24 11 24 24v4.8z" fill="#ff7816"/>
  <path d="m130 128h79v30h-79z" fill="#07485e"/>
 </g>
</svg>
